<svg width="38" height="45" viewBox="0 0 38 45" fill="none" xmlns="http://www.w3.org/2000/svg">
<path fill-rule="evenodd" clip-rule="evenodd" d="M31.4256 32.5144C35.1485 29.0917 37.4813 24.1822 37.4813 18.7283C37.4813 8.38495 29.0908 0 18.7406 0C8.39047 0 0 8.38495 0 18.7283C0 24.1823 2.33281 29.0917 6.05569 32.5144L18.7406 45L31.4256 32.5144ZM10.7637 20.8261C10.0406 21.5492 10.0406 22.7216 10.7637 23.4447L15.2149 27.8959C15.938 28.619 17.1104 28.619 17.8335 27.8959L26.7175 19.0119C27.4406 18.2888 27.4406 17.1164 26.7175 16.3933L22.2663 11.9421C21.5432 11.219 20.3708 11.219 19.6477 11.9421L10.7637 20.8261Z" fill="#FF9F43"/>
<path fill-rule="evenodd" clip-rule="evenodd" d="M17.8335 27.8959L18.7406 0C8.39047 0 0 8.38495 0 18.7283C0 24.1823 2.33281 29.0917 6.05569 32.5144L9.65983 36.0619L17.8335 27.8959ZM10.7637 20.8261C10.0406 21.5492 10.0406 22.7216 10.7637 23.4447L15.2149 27.8959C15.938 28.619 17.1104 28.619 17.8335 27.8959L18.7406 0C18.7406 0 11.4868 20.103 10.7637 20.8261Z" fill="#4A54F5"/>
<path fill-rule="evenodd" clip-rule="evenodd" d="M19.6475 11.9421L36.1063 25.7824C36.9927 23.6052 37.4811 21.2238 37.4811 18.7283C37.4811 8.38495 29.0906 0 18.7405 0C8.39029 0 19.6475 11.9421 19.6475 11.9421ZM19.6475 11.9421L36.1063 25.7824L22.2661 11.9421C21.543 11.219 20.3706 11.219 19.6475 11.9421Z" fill="#F680BC"/>
<path fill-rule="evenodd" clip-rule="evenodd" d="M28.7176 2.87179C25.8286 1.05253 22.4075 0 18.7405 0C10.2286 0 3.04219 5.67089 0.757875 13.4383L10.7635 23.4447C10.7635 23.4447 21.7061 10.906 28.7176 2.87179ZM10.7635 20.8261C10.0404 21.5492 10.0404 22.7216 10.7635 23.4447L28.7176 2.87179C21.7061 9.88337 10.7635 20.8261 10.7635 20.8261Z" fill="#17E2B2"/>
</svg>
